<svg width="38" height="38" viewBox="0 0 38 38" fill="none" xmlns="http://www.w3.org/2000/svg">
    <g clip-path="url(#clip0_5_153)">
        <path
            d="M33.8438 4.98749C33.4355 4.72335 32.9685 4.56355 32.484 4.52214C31.9995 4.48073 31.5122 4.55897 31.065 4.74999L16.4112 10.5212C16.0643 10.6624 15.6933 10.735 15.3187 10.735H5.9375C5.15014 10.735 4.39503 11.0478 3.83828 11.6045C3.28153 12.1613 2.96875 12.9164 2.96875 13.7037V13.9412H0V21.0662H2.96875V21.375C2.98735 22.1499 3.30833 22.8869 3.86307 23.4283C4.41782 23.9697 5.16233 24.2727 5.9375 24.2725L9.5 31.825C9.74123 32.3336 10.121 32.7638 10.5957 33.0663C11.0705 33.3688 11.6209 33.5312 12.1838 33.535H13.68C14.4632 33.5287 15.2123 33.2132 15.7639 32.6571C16.3155 32.101 16.625 31.3495 16.625 30.5662V24.5575L31.065 30.3287C31.4202 30.4701 31.799 30.5426 32.1813 30.5425C32.7743 30.5329 33.3518 30.3514 33.8438 30.02C34.2344 29.7562 34.5566 29.4033 34.7837 28.9903C35.0109 28.5773 35.1364 28.1161 35.15 27.645V7.43374C35.1478 6.95047 35.0277 6.47503 34.8001 6.04872C34.5724 5.62242 34.2441 5.25813 33.8438 4.98749ZM13.6562 13.7037V21.375H5.9375V13.7037H13.6562ZM13.6562 30.5662H12.16L9.23875 24.2725H13.6562V30.5662ZM17.5037 21.7312C17.2218 21.5871 16.9277 21.4679 16.625 21.375V13.5375C16.9248 13.4756 17.2188 13.3882 17.5037 13.2762L32.1813 7.43374V27.5737L17.5037 21.7312ZM35.2212 14.535V20.4725C36.0086 20.4725 36.7637 20.1597 37.3205 19.603C37.8772 19.0462 38.19 18.2911 38.19 17.5037C38.19 16.7164 37.8772 15.9613 37.3205 15.4045C36.7637 14.8478 36.0086 14.535 35.2212 14.535Z"
            fill="white" />
    </g>
    <defs>
        <clipPath id="clip0_5_153">
            <rect width="38" height="38" fill="white" />
        </clipPath>
    </defs>
</svg>