<svg width="38" height="38" viewBox="0 0 38 38" fill="none" xmlns="http://www.w3.org/2000/svg">
    <path
        d="M26.7505 10.3218L31.2044 5.86942L28.9656 3.63058L24.4594 8.13675C24.0938 7.87259 23.7114 7.63248 23.3147 7.41792C21.9873 6.70802 20.5053 6.3366 19.0001 6.3366C17.4948 6.3366 16.0128 6.70802 14.6855 7.41792C14.2897 7.62692 13.9128 7.87233 13.5423 8.13517L9.03616 3.63058L6.79733 5.86942L11.2512 10.3218C10.324 11.5024 9.60144 12.8302 9.11375 14.25H3.16675V17.4167H6.8195C6.71658 18.2004 6.65008 18.9953 6.65008 19.7917C6.65008 20.5944 6.71658 21.3956 6.8195 22.1841H3.16675V25.3508H7.52566C7.54625 25.4125 7.55891 25.4774 7.5795 25.5376C7.87716 26.4163 8.24608 27.2682 8.67991 28.0709C8.74958 28.1992 8.83033 28.3163 8.90316 28.4414L5.214 32.1306L7.45283 34.3694L10.7937 31.027C11.7253 32.068 12.8339 32.9358 14.068 33.5904C14.8264 33.991 15.6228 34.3013 16.4367 34.5088C18.1177 34.9404 19.8806 34.941 21.5619 34.5103C22.3849 34.2986 23.18 33.9904 23.9306 33.592C24.6668 33.2025 25.3777 32.7212 26.0412 32.1607C26.4497 31.8155 26.8328 31.4292 27.2033 31.027L30.5457 34.3694L32.7846 32.1306L29.0954 28.4414C29.1698 28.3148 29.2506 28.196 29.3202 28.0678C29.7525 27.2682 30.123 26.4163 30.4191 25.536C30.4397 25.4743 30.4523 25.4109 30.4729 25.3492H34.8334V22.1825H31.1791C31.282 21.3924 31.3485 20.5928 31.3485 19.7901C31.3485 18.9937 31.282 18.1988 31.1807 17.4151H34.8334V14.25H28.8864C28.3986 12.8306 27.6767 11.5028 26.7505 10.3218ZM13.745 12.2677C14.4496 11.3842 15.265 10.6954 16.1643 10.2188C17.0355 9.74918 18.0096 9.50331 18.9993 9.50331C19.989 9.50331 20.9631 9.74918 21.8342 10.2188C22.7746 10.7278 23.5994 11.426 24.2567 12.2693C24.7302 12.8598 25.1117 13.5359 25.449 14.25H12.5512C12.89 13.5359 13.27 12.8583 13.745 12.2677ZM28.1834 19.7917C28.1834 20.6182 28.1169 21.4447 27.9839 22.2506C27.8588 23.0264 27.6688 23.7912 27.4218 24.5243C27.1851 25.2279 26.889 25.9101 26.5367 26.5636C26.2021 27.1823 25.8137 27.7703 25.3762 28.3211C24.9534 28.8483 24.4895 29.3281 24.0002 29.7429C23.5094 30.1562 22.9885 30.5093 22.4502 30.7943C21.9118 31.0793 21.3497 31.2962 20.7766 31.4434C20.7132 31.4593 20.6467 31.4656 20.5834 31.4798V22.1667H17.4167V31.4783C17.3534 31.464 17.2869 31.4577 17.2236 31.4418C16.652 31.2946 16.0883 31.0777 15.55 30.7927C15.0117 30.5077 14.4907 30.1546 14.0015 29.7413C13.4968 29.3126 13.035 28.8359 12.6224 28.3179C12.1848 27.769 11.7975 27.1818 11.465 26.5636C11.1125 25.9094 10.8159 25.2267 10.5783 24.5227C10.3287 23.7804 10.1402 23.0189 10.0147 22.2458C9.75444 20.6469 9.75124 19.0166 10.0052 17.4167H27.9934C28.1185 18.1941 28.1834 18.9921 28.1834 19.7917Z"
        fill="#FBFBFB" />
</svg>