<svg width="38" height="38" viewBox="0 0 38 38" fill="none" xmlns="http://www.w3.org/2000/svg">
<g clip-path="url(#clip0_5_146)">
<path d="M10.1332 24.1511V11.1889H25.7554L27.4232 9.5H8.44434V24.1511H10.1332Z" fill="#FFFCFC"/>
<path d="M6.33328 7.38889H31.6666V24.2778H33.7777V6.86111C33.7777 6.44119 33.6109 6.03846 33.314 5.74153C33.017 5.44459 32.6143 5.27778 32.1944 5.27778H5.8055C5.38558 5.27778 4.98285 5.44459 4.68592 5.74153C4.38898 6.03846 4.22217 6.44119 4.22217 6.86111V24.2778H6.33328V7.38889Z" fill="#FFFCFC"/>
<path d="M1.05566 26.3889V29.9778C1.05566 30.7056 1.34481 31.4037 1.85949 31.9184C2.37418 32.4331 3.07224 32.7222 3.80011 32.7222H34.1368C34.8646 32.7222 35.5627 32.4331 36.0774 31.9184C36.5921 31.4037 36.8812 30.7056 36.8812 29.9778V26.3889H1.05566ZM34.8334 29.9778C34.8334 30.1457 34.7667 30.3068 34.6479 30.4256C34.5292 30.5444 34.3681 30.6111 34.2001 30.6111H3.75789C3.58992 30.6111 3.42883 30.5444 3.31005 30.4256C3.19128 30.3068 3.12455 30.1457 3.12455 29.9778V28.0039H13.6273C13.7593 28.3153 13.9796 28.5811 14.261 28.7687C14.5423 28.9563 14.8725 29.0574 15.2107 29.0594H22.7368C23.0749 29.0574 23.4051 28.9563 23.6865 28.7687C23.9679 28.5811 24.1881 28.3153 24.3201 28.0039H34.8334V29.9778Z" fill="#FFFCFC"/>
</g>
<defs>
<clipPath id="clip0_5_146">
<rect width="38" height="38" fill="white"/>
</clipPath>
</defs>
</svg>
