<svg width="38" height="38" viewBox="0 0 38 38" fill="none" xmlns="http://www.w3.org/2000/svg">
<path d="M4.75 9.89583C4.75 8.53107 5.29215 7.22221 6.25718 6.25718C7.22221 5.29215 8.53107 4.75 9.89583 4.75H28.1042C29.4689 4.75 30.7778 5.29215 31.7428 6.25718C32.7079 7.22221 33.25 8.53107 33.25 9.89583V28.1042C33.25 29.4689 32.7079 30.7778 31.7428 31.7428C30.7778 32.7079 29.4689 33.25 28.1042 33.25H9.89583C8.53107 33.25 7.22221 32.7079 6.25718 31.7428C5.29215 30.7778 4.75 29.4689 4.75 28.1042V9.89583ZM9.89583 7.125C9.16096 7.125 8.45619 7.41693 7.93656 7.93656C7.41693 8.45619 7.125 9.16096 7.125 9.89583V28.1042C7.125 29.6337 8.36633 30.875 9.89583 30.875H28.1042C28.839 30.875 29.5438 30.5831 30.0634 30.0634C30.5831 29.5438 30.875 28.839 30.875 28.1042V9.89583C30.875 9.16096 30.5831 8.45619 30.0634 7.93656C29.5438 7.41693 28.839 7.125 28.1042 7.125H9.89583ZM9.5 13.0625C9.5 11.533 10.7413 10.2917 12.2708 10.2917H25.7292C27.2587 10.2917 28.5 11.533 28.5 13.0625V15.4375C28.5 16.1724 28.2081 16.8771 27.6884 17.3968C27.1688 17.9164 26.464 18.2083 25.7292 18.2083H12.2708C11.536 18.2083 10.8312 17.9164 10.3116 17.3968C9.79193 16.8771 9.5 16.1724 9.5 15.4375V13.0625ZM12.2708 12.6667C12.1659 12.6667 12.0652 12.7084 11.9909 12.7826C11.9167 12.8568 11.875 12.9575 11.875 13.0625V15.4375C11.875 15.656 12.0523 15.8333 12.2708 15.8333H25.7292C25.8341 15.8333 25.9348 15.7916 26.0091 15.7174C26.0833 15.6432 26.125 15.5425 26.125 15.4375V13.0625C26.125 12.9575 26.0833 12.8568 26.0091 12.7826C25.9348 12.7084 25.8341 12.6667 25.7292 12.6667H12.2708ZM10.6875 20.5833C10.3726 20.5833 10.0705 20.7084 9.84781 20.9311C9.62511 21.1538 9.5 21.4559 9.5 21.7708C9.5 22.0858 9.62511 22.3878 9.84781 22.6105C10.0705 22.8332 10.3726 22.9583 10.6875 22.9583H17.8125C18.1274 22.9583 18.4295 22.8332 18.6522 22.6105C18.8749 22.3878 19 22.0858 19 21.7708C19 21.4559 18.8749 21.1538 18.6522 20.9311C18.4295 20.7084 18.1274 20.5833 17.8125 20.5833H10.6875ZM9.5 26.5208C9.5 26.2059 9.62511 25.9038 9.84781 25.6811C10.0705 25.4584 10.3726 25.3333 10.6875 25.3333H17.8125C18.1274 25.3333 18.4295 25.4584 18.6522 25.6811C18.8749 25.9038 19 26.2059 19 26.5208C19 26.8358 18.8749 27.1378 18.6522 27.3605C18.4295 27.5832 18.1274 27.7083 17.8125 27.7083H10.6875C10.3726 27.7083 10.0705 27.5832 9.84781 27.3605C9.62511 27.1378 9.5 26.8358 9.5 26.5208ZM24.1458 20.5833C23.411 20.5833 22.7062 20.8753 22.1866 21.3949C21.6669 21.9145 21.375 22.6193 21.375 23.3542V24.9375C21.375 26.467 22.6163 27.7083 24.1458 27.7083H25.7292C26.464 27.7083 27.1688 27.4164 27.6884 26.8968C28.2081 26.3771 28.5 25.6724 28.5 24.9375V23.3542C28.5 22.6193 28.2081 21.9145 27.6884 21.3949C27.1688 20.8753 26.464 20.5833 25.7292 20.5833H24.1458ZM23.75 23.3542C23.75 23.2492 23.7917 23.1485 23.8659 23.0743C23.9402 23 24.0409 22.9583 24.1458 22.9583H25.7292C25.8341 22.9583 25.9348 23 26.0091 23.0743C26.0833 23.1485 26.125 23.2492 26.125 23.3542V24.9375C26.125 25.0425 26.0833 25.1432 26.0091 25.2174C25.9348 25.2916 25.8341 25.3333 25.7292 25.3333H24.1458C24.0409 25.3333 23.9402 25.2916 23.8659 25.2174C23.7917 25.1432 23.75 25.0425 23.75 24.9375V23.3542Z" fill="white"/>
</svg>
